<?xml version="1.0" encoding="UTF-8"?><svg id="Layer_2" xmlns="http://www.w3.org/2000/svg" viewBox="0 0 764.42 751.68"><defs><style>.cls-1{fill:#3c3c3c;fill-rule:evenodd;}</style></defs><g id="Github"><path class="cls-1" d="m382.53,0C171,0,0,172.26,0,385.37c0,170.35,109.56,314.55,261.56,365.58,19,3.84,25.96-8.29,25.96-18.49,0-8.93-.63-39.56-.63-71.46-106.41,22.97-128.57-45.94-128.57-45.94-17.1-44.66-42.44-56.14-42.44-56.14-34.83-23.61,2.54-23.61,2.54-23.61,38.63,2.55,58.9,39.56,58.9,39.56,34.19,58.69,89.29,42.11,111.46,31.9,3.16-24.88,13.3-42.11,24.07-51.68-84.87-8.93-174.16-42.11-174.16-190.13,0-42.11,15.19-76.56,39.26-103.36-3.8-9.57-17.1-49.13,3.81-102.09,0,0,32.3-10.21,105.13,39.56,31.18-8.44,63.33-12.73,95.64-12.76,32.3,0,65.22,4.47,95.63,12.76,72.83-49.77,105.13-39.56,105.13-39.56,20.91,52.95,7.6,92.52,3.8,102.09,24.7,26.79,39.27,61.25,39.27,103.36,0,148.03-89.29,180.56-174.8,190.13,13.94,12.12,25.96,35.09,25.96,71.46,0,51.68-.63,93.15-.63,105.91,0,10.21,6.97,22.34,25.96,18.51,152-51.05,261.56-195.24,261.56-365.59C765.04,172.26,593.42,0,382.53,0Z"/></g></svg>