<svg xmlns="http://www.w3.org/2000/svg" viewBox="0 0 408.1 523.41"><defs><style>.cls-1,.cls-10,.cls-3{fill:#fff;}.cls-2{fill:#e84393;stroke-width:8px;}.cls-11,.cls-12,.cls-2,.cls-3,.cls-5,.cls-6,.cls-8,.cls-9{stroke:#000;}.cls-11,.cls-12,.cls-2,.cls-5,.cls-6,.cls-8,.cls-9{stroke-miterlimit:10;}.cls-3{stroke-linejoin:round;}.cls-11,.cls-3,.cls-8{stroke-width:5px;}.cls-4{fill:#74b9ff;}.cls-11,.cls-5,.cls-8{fill:none;}.cls-5,.cls-8,.cls-9{stroke-linecap:round;}.cls-12,.cls-5,.cls-6{stroke-width:10px;}.cls-6,.cls-9{fill:#e8c6ba;}.cls-7{fill:#89511f;}.cls-9{stroke-width:4.82px;}.cls-10{opacity:0.2;}.cls-12{fill:#3f1d1d;}</style></defs><g id="Layer_2" data-name="Layer 2"><g id="Hiroki"><g id="shirt"><path class="cls-1" d="M203.83,458.5c-19.29,0-35.29-6.76-47.58-20.08-34.4-37.32-29.73-114.93-29.33-120.7l10.73-24.06a30.79,30.79,0,0,0,.15,6.46l.08.3c20.94,64.73,61.11,123.5,61.51,124.09l3.16.2c.43-.47,42.87-48.12,69.44-115.34l.09-.29c.24-1.09.44-2.3.6-3.59l5.41,23.71a228.42,228.42,0,0,1-.22,40.77c-2,20.59-7.87,49.09-24.75,67.91C240.84,451.56,224.26,458.5,203.83,458.5Z"/><path d="M136.21,301.83c21.11,64.69,61.12,123.23,61.52,123.82l6.32.41c.42-.47,41.65-46.76,68.41-112.46l3.63,15.93c.43,4.39,6.47,72.53-24.48,107-11.87,13.23-28,19.94-47.78,19.94-18.7,0-34.2-6.53-46.09-19.42-33.28-36.09-29.34-111-28.83-118.84l7.3-16.39M142,278.9l-17.08,38.32s-11.7,143.3,78.89,143.3,76.25-131.65,76.25-131.65l-8.85-38.82s.37,12.07-1.12,18.58c-26.74,67.66-69.06,114.74-69.06,114.74S160.89,365,139.79,299.8c-1.11-7,2.23-20.9,2.23-20.9Z"/></g><path class="cls-2" d="M219.93,405.24H185.22c-2.67,0-16.42,85.29-16.42,85.29,0,11.69,2.18,26.92,4.84,26.92h57.87c2.66,0,4.84-15.23,4.84-26.92C236.35,490.53,222.59,405.24,219.93,405.24Z"/><path class="cls-2" d="M223.82,412.27H181.33c-3.26,0-20.1-48.42-20.1-48.42a6,6,0,0,1,5.93-5.93H238a6,6,0,0,1,5.93,5.93S227.08,412.27,223.82,412.27Z"/><polygon class="cls-3" points="132.61 304.59 189.65 353.96 160.58 393.96 124.89 321.43 132.61 304.59"/><polygon class="cls-3" points="277.31 306.86 216.86 353.96 247.06 393.96 285.03 323.69 277.31 306.86"/><g id="jacket"><path class="cls-4" d="M226.27,518.41C229.39,498.7,246.87,396,282,325.07c17.07,1,46.31,10.18,70.56,26.35,23.06,15.37,50.54,42.82,50.54,86.28v80.71ZM5,518.41V441.48c0-45.11,25.47-73.13,46.84-88.7,25-18.17,54.46-26.85,74.06-27.73,33.44,76.9,50.25,174.22,53.34,193.36Z"/><path d="M122.7,330.27c29.73,69.84,45.91,155.47,50.64,183.14H10V441.48c0-43,24.35-69.77,44.78-84.65,22.71-16.55,49.21-24.94,67.92-26.56m162.28.1c14.68,1.7,40.62,9.08,64.81,25.21,14.55,9.7,26,21,34.15,33.61A88.2,88.2,0,0,1,398.1,437.7v75.71h-166c2-11.79,6-34.08,12.22-60.64,8.1-34.47,21.59-82.95,40.61-122.4M279,320c-40.65,80-58.15,201-58.15,201h-36.1s-16.86-113.8-55.58-201C87.33,320,0,356.18,0,441.48v81.93H408.1V437.7C408.1,353.49,310.45,320,279,320Z"/></g><line class="cls-5" x1="92.81" y1="435.32" x2="92.81" y2="515.22"/><line class="cls-5" x1="317.1" y1="435.32" x2="317.1" y2="515.22"/><path class="cls-6" d="M331.19,148a18.23,18.23,0,0,0-6.71-.26c-11.51-80.88-57.74-113-120-113s-108.52,32.14-120,113a18.23,18.23,0,0,0-6.71.26C62.81,151.52,56,173.8,62.48,197.79,67,214.64,76.93,227.84,87.58,233c16,72.07,73.82,124.5,116.87,124.5,41.4,0,100.87-52.43,116.87-124.5,10.65-5.17,20.55-18.37,25.1-35.22C352.91,173.8,346.09,151.52,331.19,148Z"/><ellipse id="left_eye" data-name="left eye" class="cls-7" cx="148.14" cy="181.16" rx="17.5" ry="20"/><ellipse id="right_eye" data-name="right eye" class="cls-7" cx="262.41" cy="180.62" rx="17.5" ry="20"/><path id="mouth" class="cls-8" d="M171.34,284.94c34.85,23.68,77.15-15.43,77.15-15.43"/><path id="right_eyebrow" data-name="right eyebrow" class="cls-9" d="M287.6,146.5c-34.35-8.61-62.16,9.06-62.16,9.06"/><path id="left_eyebrow" data-name="left eyebrow" class="cls-9" d="M118.71,146.21c30.36-4.66,63.45,8.14,63.45,8.14"/><path id="nose" class="cls-8" d="M209.27,202.73s-28.61,28.6-19.27,35a19.32,19.32,0,0,0,18.68,1.75"/><path id="right_lense" data-name="right lense" class="cls-10" d="M177.46,213H115.23c-6.6,0-6.36-5.9-6.36-12.5V183.22c0-6.6-.24-11.51,6.36-11.51h62.23a12,12,0,0,1,12,12V201A12,12,0,0,1,177.46,213Z"/><path id="left_lense" data-name="left lense" class="cls-11" d="M177.46,213H115.23c-6.6,0-6.36-5.9-6.36-12.5V183.22c0-6.6-.24-11.51,6.36-11.51h62.23a12,12,0,0,1,12,12V201A12,12,0,0,1,177.46,213Z"/><path id="right_frame" data-name="right frame" class="cls-10" d="M230.94,213h62.24c6.6,0,6.35-5.9,6.35-12.5V183.22c0-6.6.25-11.51-6.35-11.51H230.94a12,12,0,0,0-12,12V201A12,12,0,0,0,230.94,213Z"/><path id="right_frame-2" data-name="right frame" class="cls-11" d="M230.94,213h62.24c6.6,0,6.35-5.9,6.35-12.5V183.22c0-6.6.25-11.51-6.35-11.51H230.94a12,12,0,0,0-12,12V201A12,12,0,0,0,230.94,213Z"/><line id="bridge" class="cls-11" x1="190.48" y1="183.63" x2="217.13" y2="183.63"/><line id="left_arm" data-name="left arm" class="cls-11" x1="108.14" y1="182.7" x2="84.46" y2="159.34"/><line id="right_arm" data-name="right arm" class="cls-11" x1="299.87" y1="181.19" x2="324.69" y2="159.86"/><path id="hair" class="cls-12" d="M180.09,18C201.15,2.14,233.87,3.71,257.18,7.61c22.39,3.75,50.3,20.79,65.49,43.65,31.53,47.43,24.09,111.16,1.06,111.16-10.3,0-24.41-59.62-28-65.8-49.8,1.36-100.84-7-100.84-7s-23.44,14-76.87,8C113,103.15,107.31,163,85.39,163,71.4,163,43,18,180.09,18Z"/></g></g></svg>